<?xml version="1.0" encoding="utf-8"?>
<!-- Generator: Adobe Illustrator 16.0.0, SVG Export Plug-In . SVG Version: 6.00 Build 0)  -->
<!DOCTYPE svg PUBLIC "-//W3C//DTD SVG 1.1//EN" "http://www.w3.org/Graphics/SVG/1.1/DTD/svg11.dtd">
<svg version="1.1" id="Layer_1" xmlns="http://www.w3.org/2000/svg" xmlns:xlink="http://www.w3.org/1999/xlink" x="0px" y="0px"
	 width="476.947px" height="190.778px" viewBox="44.966 388.309 476.947 190.778"
	 enable-background="new 44.966 388.309 476.947 190.778" xml:space="preserve">
<path fill="#000002" d="M481.093,579.087l0.016-47.961l-417.486-0.023l-0.006,47.982L481.093,579.087L481.093,579.087z
	 M136.555,568.07l0.009-25.063l8.961,0.086c1.366,2.725,4.283,17.494,5.54,19.494l5.191-19.576l8.98,0.015l-0.005,25.046
	l-5.763-0.026l-0.15-20.446l-5.353,20.477l-6.04-0.075c-1.308-2.597-4.246-18.662-5.591-20.628l-0.021,20.682L136.555,568.07
	L136.555,568.07z M349.207,568.071l0.005-25.062l6.162,0.007l-0.015,25.052L349.207,568.071L349.207,568.071z M390.905,567.968
	l0.081-24.954l5.936-0.01c0.563,1.856,0.133,17.254,0.167,20.604l14.693,0.078l0.019,4.246
	C410.695,568.213,392.337,568.227,390.905,567.968L390.905,567.968z M225.861,544.068l0.003-1.061l24.037,0.047l-0.001,4.396
	l-8.926-0.004l0.001,20.561l-6.18,0.05l-0.035-20.594l-8.89-0.021L225.861,544.068L225.861,544.068z M321.98,547.386l0.004-4.37
	l24.037,0.006l-0.016,4.433l-8.916,0.043l-0.004,20.583l-6.173-0.031l-0.056-20.584L321.98,547.386L321.98,547.386z
	 M104.583,559.328c0.041,3.425-2.756,6.105-4.642,7.32c-6.514,4.188-21.534,2.977-21.637-10.815
	c-0.057-7.513,4.202-12.465,11.17-13.35c7.851-0.996,14.005,2.211,15.162,8.771l-6.184,0.013c-0.842-4.357-6.056-5.008-9.025-4.021
	c-3.315,1.103-4.939,4.407-4.826,8.825c0.208,8.102,7.086,9.487,11.218,7.177c1.922-1.076,1.785-1.627,2.754-3.966L104.583,559.328
	L104.583,559.328z M386.109,559.323c0.017,3.554-2.721,6.099-4.644,7.332c-6.493,4.17-21.385,2.936-21.627-10.575
	c-0.138-7.648,4.099-12.59,10.892-13.56c7.529-1.072,14.498,2.075,15.435,8.753l-6.188-0.007c-0.76-4.332-6.101-4.994-9.025-4.015
	c-6.6,2.21-6.688,15.369,0.814,16.801c2.039,0.391,4.062,0.064,5.586-0.795c1.648-0.93,1.938-1.978,2.75-3.976L386.109,559.323
	L386.109,559.323z M447.926,560.398c0.719,1.874,0.68,2.385,2.275,3.236c2.241,1.199,6.979,1.021,9.104-0.273
	c1.079-0.657,1.68-2.308,0.505-3.573c-2.096-2.265-12.93-2.05-16.084-5.759c-2.021-2.377-1.32-6.271,0.508-8.372
	c4.459-5.129,20.861-4.962,21.299,4.867l-5.918-0.001c-0.503-1.688-0.88-2.358-2.352-3.075c-6.087-2.966-12.338,2.51-7.066,4.431
	c5.058,1.845,13.665,1.563,15.61,6.229c1.43,3.421-0.028,6.328-1.895,7.947c-4.337,3.771-21.11,5.151-21.839-5.766L447.926,560.398
	L447.926,560.398z M416.074,567.996l0.104-24.989l21.635-0.004l0.025,4.453l-15.583,0.013l-0.001,5.309l14.438,0.006l0.01,4.306
	l-14.44,0.01l-0.014,6.519l16.259,0.024l0.022,4.431L416.074,567.996L416.074,567.996z M109.374,567.98l0.093-24.977l21.638-0.008
	l0.034,4.457l-15.581,0.025l-0.001,5.286l14.458,0.107l0.022,4.035c-1.539,0.507-11.836,0.104-14.474,0.197l-0.01,6.5l16.252,0.011
	l0.015,4.451L109.374,567.98L109.374,567.98z M171.179,544.068l0.008-1.06l21.755,0.004l-0.01,4.442h-15.538l-0.025,5.318
	l14.439,0.019l0.017,4.272l-14.403,0.021l-0.056,6.523l16.246,0.074l0.023,4.248c-1.406,0.35-19.434,0.136-22.448,0.134
	L171.179,544.068L171.179,544.068z M262.783,568.061c0.579-1.942,1.775-4.445,2.596-6.381c1.162-2.735,7.416-18.447,8.067-18.672
	l6.914,0.063l10.386,24.998l-6.495-0.021l-1.922-5.074l-11.323,0.027l-1.865,5.065L262.783,568.061L262.783,568.061z
	 M272.773,558.592l3.962-9.879l3.742,9.952L272.773,558.592L272.773,558.592z M216.707,560.35c0.027-2.71-0.32-15.886,0.195-17.35
	l5.576,0.037l0.013,25.017l-6.238,0.017c-0.972-1.978-11.85-17.62-12.125-17.826l-0.011,17.828l-5.763-0.035l-0.001-25.02
	l6.453,0.063C206.33,544.678,215.419,559.395,216.707,560.35L216.707,560.35z M294.787,568.059l0.007-25.039
	c4.666-0.068,16.476-0.579,20.044,0.938c2.249,0.958,4.262,3.007,4.24,6.111c-0.032,4.48-3.109,4.987-4.369,6.04
	c4.414,1.936,3.129,4.799,3.566,9.134c0.233,2.339,1.158,1.264,1.246,2.802c-1.873,0.016-5.319,0.373-6.799-0.157
	c-1.074-2.473,0.315-7.538-1.8-8.976c-1.673-1.137-7.551-0.777-9.96-0.731l-0.002,9.87L294.787,568.059L294.787,568.059z
	 M300.964,553.946l0.002-6.62c2.827-0.018,9.181-0.555,10.989,0.952c1.179,0.981,1.307,3.232,0.161,4.455
	C310.486,554.469,304.029,553.968,300.964,553.946z"/>
<path fill="#DA1F26" d="M306.162,457.408c-13.653,0.132-24.804,3.647-33.507,10.024c-8.085,5.926-14.063,14.692-14.156,29.354
	c-0.049,7.56,1.758,12.081,5.544,16.121c3.596,3.837,9.082,6.242,15.831,3.517c4.986-2.015,9.997-5.264,13.783-8.063
	c2.171-1.608,4.099-2.933,6.224-4.574l6.253-4.831c0.361,4.633-0.792,9.736,1.896,12.933c1.945,2.313,5.142,5.117,9.408,5.695
	c5.656,0.768,16.95-5.997,19.185-10.693c-2.502,0.708-9.507,4.553-12.218,3.535c-1.776-0.666-1.116-4.871-1.116-6.916v-63.841
	c0-3.768-0.654-5.804,1.852-6.354c6.616-1.455,11.74,0.494,18.849-4.949c0.973-0.744,3.27-3.218,3.802-4.298
	c-2.054-0.225-15.687,0.026-18.411,0.153c-10.243,0.479-18.284,6.417-21.727,15.807
	C305.504,445.869,306.458,450.979,306.162,457.408L306.162,457.408z M306.133,492.52c-1.17,0.488-2.834,1.736-4.183,2.533
	c-6.313,3.729-19.351,8.135-24.127,0.238c-1.556-2.572-2.396-7.477-1.748-10.99c2.746-14.952,14.567-22.829,30.121-23.11
	L306.133,492.52z"/>
<path fill="#DA1F26" d="M407.415,500.906c-1.423,0.486-6.058,2.968-10.014,4.389c-3.743,1.346-7.495,2.483-11.876,2.604
	c-6.145,0.169-12.924-0.313-18.036-3.633c-1.173-0.761-3.214-2.572-3.791-3.639c0.628-0.885,20.557-15.854,21.946-16.923
	c1.563-1.203,21.146-15.96,21.908-16.911c-4.215-3.18-10.817-8.24-17.654-9.435c-8.041-1.403-16.896-0.027-23.774,2.501
	c-6.681,2.454-12.521,6.779-16.224,10.897c-3.978,4.424-7.105,11.404-7.521,19.547c-0.467,9.15,2.973,15.26,7.482,19.587
	c4.942,4.747,10.25,7.112,19.593,7.459c8.274,0.31,16.284-1.076,22.731-4.307C397.78,510.248,404.832,504.888,407.415,500.906
	L407.415,500.906z M362.006,497.21c-1.54-1.917-2.535-8.365-2.602-11.452c-0.149-6.968,2.371-16.461,9.012-19.276
	c3.189-1.354,8.753-1.106,11.429,0.71c2.158,1.465,5.347,5.418,4.218,9.871c-1.356,5.369-13.278,13.829-17.998,17.307
	C365.001,495.15,363.071,496.696,362.006,497.21z"/>
<path fill="#DA1F26" d="M465.253,465.617c5.204,3.192,13.125,6.131,14.295,13.959c1.178,7.874-5.426,19.181-8.147,20.322
	c-6.463-6.146-13.16-18.968-18.631-27.394c-2.144-3.302-4.188-5.938-6.487-8.872c-5.72-7.302-10.769-8.783-20.261-2.911
	c-6.864,4.247-12.252,8.261-16.859,13.623c6.21-2.185,14.104-5.735,21.051-2.561c5.083,2.324,9.36,9.041,12.545,14.09
	c5.69,9.021,8.246,15.654,15.378,24.703c1.361,1.729,4.769,6.148,6.112,7.344c0.874-0.884,5.082-8.374,6.311-10.271
	c4.203-6.482,9.363-13.582,14.334-19.267c5.313-6.072,13.101-12.537,8.122-22.284c-1.729-3.386-5.034-7.063-7.769-9.03
	c-4.657-3.356-6.786-3.039-11.438,0.314C471.928,458.742,465.977,463.976,465.253,465.617z"/>
<path fill="#DA1F26" d="M44.966,412.653l43.629,0.091l0.015,103.204l8.407,0.017l0.006-103.191l43.946-0.032
	c0.208-1.373,0.295-7.331-0.095-8.465l-95.908,0.054V412.653z"/>
<path fill="#DA1F26" d="M131.083,472.544c1.66-0.808,2.728-2.044,5.009-2.953c2.13-0.849,4.96-1.313,6.46,0.411
	c1.242,1.429,0.658,12.698,0.658,15.507c0,8.675-0.332,24.268,0.026,32.058c3.649,0.383,16.709-5.063,16.883-8.041
	c0.325-5.566-0.094-18.524-0.001-25.318c0.733-0.385,4.939-5.243,7.331-7.259c2.401-2.023,5.357-4.823,8.583-6.294
	c4.569-2.084,7.852,0.271,8.466,4.631c0.464,3.298-1.221,9.661-2.618,11.803c2.633-1.715,5.455-4.048,8.136-6.049
	c1.314-0.98,2.799-2.213,3.871-3.328c1.221-1.27,2.436-2.142,3.668-3.528c1.808-2.031,5.277-5.289,4.518-9.663
	c-1.602-9.226-12.577-8.994-19.175-5.963c-3.64,1.676-7.369,5.086-10.275,7.735l-10.518,11.074c-0.638,0.748-1.126,1.48-1.965,1.952
	c-0.239-6.057,1.1-19.011-3.569-21.652c-1.947-1.104-4.577-1.229-6.852-0.36C143.641,459.617,133.796,468.237,131.083,472.544z"/>
<path fill="#DA1F26" d="M520.768,416.509c-3.043-8.225-11.121-13.755-20.236-12.996c-10.079,0.838-18.305,9.146-18.28,19.836
	c0.042,20.165,26.771,27.332,37.029,9.914c0.644-1.092,1.086-2.103,1.518-3.274C522.307,425.881,522.273,420.579,520.768,416.509
	L520.768,416.509z M499.029,405.73c10.653-1.932,19.379,5.883,20.701,14.734c1.602,10.72-5.892,18.963-14.615,20.447
	c-10.799,1.836-19.254-5.987-20.646-14.736C482.775,415.52,490.237,407.322,499.029,405.73z"/>
<path fill="#DA1F26" d="M208.793,468.345c1.06-0.277,12.876-8.809,13.206-1.8c0.104,2.219,0.002,4.714,0.002,6.963
	c0,9.28,0,18.563,0,27.841c0,4.857-0.567,8.418,1.772,11.996c4.517,6.911,16.083,4.247,20.317,1.123
	c1.874-1.382,6.014-5.359,6.79-7.188c-2.288,0.644-6.348,5.1-9.991,3.343c-3.18-1.534-2.2-7.761-2.2-11.672
	c0-9.36-0.003-18.722,0-28.08c0.002-5.587,0.036-7.587-2.71-11.254c-1.99-2.657-6.254-3.432-10.688-2.559
	c-4.413,0.87-12.042,5.822-15.082,9.366C209.715,466.999,209.324,467.843,208.793,468.345z"/>
<polygon fill="#DA1F26" points="104.696,515.939 113.085,515.965 113.108,428.853 140.977,428.826 141.067,420.399 104.714,420.401 
	"/>
<path fill="#DA1F26" d="M45.093,428.776l27.296,0.025c0.445,1.725,0.125,38.4,0.125,43.505c0,7.279,0,14.562,0,21.842
	c0,7.035-0.32,14.856,0.033,21.797l7.921,0.02l0.041-95.541L45.1,420.399L45.093,428.776z"/>
<polygon fill="#DA1F26" points="44.966,396.133 141.002,396.225 141.063,388.309 44.966,388.309 "/>
<path fill="#DA1F26" d="M228.227,426.554c-6.904,1.09-10.729,3.957-9.295,11.491c1.317,6.926,4.762,9.479,12.392,7.266
	c5.211-1.513,10.876-4.498,10.186-10.911C240.894,428.68,234.723,425.528,228.227,426.554z"/>
<path fill="#DA1F26" d="M500.66,431.253l1.909-0.018l0.013-11.578c0.071,0.053,0.127,0.067,0.145,0.166l3.969,11.438l1.943-0.002
	l3.97-11.962l0.135,11.939l1.883,0.021l0.033-14.59l-2.832-0.004l-4.03,12.027c-0.849-1.02-1.845-4.625-2.292-6.047
	c-0.326-1.033-0.655-1.991-1.026-3.061c-1.17-3.347-0.28-2.927-3.773-2.931L500.66,431.253z"/>
<path fill="#DA1F26" d="M487.085,418.418l4.844,0.01l0.014,12.736l1.979,0.089c0.11-3.029-0.395-10.546,0.159-12.844l4.769-0.02
	l-0.017-1.717l-11.776-0.021L487.085,418.418z"/>
</svg>
